<svg xmlns="http://www.w3.org/2000/svg" width="48" height="48">
    <path fill="#D3D7DB" fill-rule="evenodd" d="M24 0c13.254 0 24 10.745 24 24S37.254 48 24 48C10.745 48-.001 37.255-.001 24S10.745 0 24 0z"/>
    <path fill="#071E40" fill-rule="evenodd" d="M33.343 25.445c2.309-2.309 2.912-5.823 1.556-8.734-.151-.351-.502-.652-.903-.702-.402-.051-.803.05-1.104.351l-3.364 3.363-1.455-1.405 3.363-3.363c.301-.302.401-.703.351-1.105-.05-.401-.351-.753-.703-.903-2.961-1.356-6.474-.753-8.733 1.556-2.008 2.008-2.711 4.869-2.008 7.529-1.958 1.606-6.625 5.37-7.228 5.973a4.757 4.757 0 0 0 6.726 6.726c.602-.603 4.367-5.271 5.973-7.228 2.661.702 5.522-.05 7.529-2.058zm-7.479-.602a1.318 1.318 0 0 0-1.455.351c-2.209 2.761-5.873 7.278-6.325 7.73a2.243 2.243 0 0 1-3.212 0 2.244 2.244 0 0 1 0-3.213c.452-.452 4.969-4.116 7.73-6.324.452-.351.602-.954.351-1.456a5.27 5.27 0 0 1 1.154-5.722 5.25 5.25 0 0 1 4.016-1.506l-2.71 2.711c-.502.502-.502 1.305 0 1.757l3.212 3.212c.502.502 1.305.502 1.757 0l2.71-2.71a5.244 5.244 0 0 1-1.506 4.015 5.268 5.268 0 0 1-5.722 1.155zm-9.335 5.421c.551 0 1.003.451 1.003 1.003 0 .552-.452 1.004-1.003 1.004a1.007 1.007 0 0 1-1.005-1.004c0-.552.452-1.003 1.005-1.003z"/>
</svg>
