<svg xmlns="http://www.w3.org/2000/svg" width="48" height="49">
    <path fill="#D3D7DB" fill-rule="evenodd" d="M23.999 0C37.254 0 48 10.745 48 24S37.254 48 23.999 48c-13.254 0-24-10.745-24-24s10.746-24 24-24z"/>
    <path fill="#F2F2F2" fill-rule="evenodd" d="M38.998 41.182v7.819H7.994v-7.819c4.947-4.002 11.036-6.134 11.036-8.86 0-1.977-3.528-4.913-3.665-6.67a9.24 9.24 0 0 1-1.055-4.286c0-5.173 4.231-9.366 9.451-9.366 5.22 0 9.451 4.193 9.451 9.366a9.252 9.252 0 0 1-1.058 4.295c-.141 1.867-3.665 4.513-3.665 6.14 0 3.144 5.888 5.25 10.509 9.381z"/>
</svg>
