<svg xmlns="http://www.w3.org/2000/svg" width="48" height="48">
    <path fill="#D3D7DB" fill-rule="evenodd" d="M24 0c13.254 0 24 10.745 24 24 0 13.254-10.746 24-24 24C10.745 48-.001 37.254-.001 24-.001 10.745 10.745 0 24 0z"/>
    <path fill="#092447" fill-rule="evenodd" d="M33.679 34.998H14.302a2.302 2.302 0 0 1-2.308-2.295V19.851a2.302 2.302 0 0 1 2.308-2.296h4.147v-3.408c0-.397.204-.746.514-.951.188-.133.416-.213.664-.213h8.766c.635 0 1.15.512 1.15 1.144v.459c0 .077-.008.153-.023.226v2.743h4.159a2.302 2.302 0 0 1 2.308 2.296v12.851a2.301 2.301 0 0 1-2.308 2.296zm-6.92-19.269h-5.548v1.826h5.548v-1.826zm6.472 5.51a.92.92 0 0 0-.924-.918H15.676a.92.92 0 0 0-.923.918v4.598h18.478v-4.598zm0 7.345h-7.843v.695c0 .63-.513 1.141-1.147 1.141h-.462a1.145 1.145 0 0 1-1.148-1.141v-.695h-7.878v2.746a.92.92 0 0 0 .923.918h16.631c.51 0 .924-.411.924-.918v-2.746z"/>
</svg>
