<svg 
 xmlns="http://www.w3.org/2000/svg"
 xmlns:xlink="http://www.w3.org/1999/xlink"
 width="21px" height="18px">
<path fill-rule="evenodd"  fill="rgb(102, 102, 106)"
 d="M18.158,2.648 L16.544,2.648 C16.412,2.648 16.281,2.605 16.151,2.518 L14.405,0.777 C13.794,0.299 13.053,-0.006 12.267,-0.006 L8.733,-0.006 C7.947,-0.006 7.205,0.255 6.594,0.777 L4.849,2.518 C4.761,2.605 4.631,2.648 4.456,2.648 L2.841,2.648 C1.270,2.648 0.005,3.910 0.005,5.476 L0.005,15.177 C0.005,16.744 1.270,18.005 2.841,18.005 L18.158,18.005 C19.729,18.005 20.994,16.744 20.994,15.177 L20.994,5.476 C20.994,3.910 19.729,2.648 18.158,2.648 ZM18.812,15.177 C18.812,15.525 18.507,15.830 18.158,15.830 L2.885,15.830 C2.536,15.830 2.230,15.525 2.230,15.177 L2.230,5.476 C2.230,5.128 2.536,4.823 2.885,4.823 L4.500,4.823 C5.154,4.823 5.765,4.606 6.289,4.171 L8.034,2.431 C8.252,2.257 8.514,2.170 8.776,2.170 L12.310,2.170 C12.572,2.170 12.834,2.257 13.053,2.431 L14.710,4.084 L14.798,4.171 C15.322,4.562 15.933,4.823 16.587,4.823 L18.201,4.823 C18.550,4.823 18.856,5.128 18.856,5.476 L18.812,15.177 L18.812,15.177 ZM10.522,4.780 C7.991,4.780 5.940,6.825 5.940,9.348 C5.940,11.871 7.991,13.916 10.522,13.916 C13.053,13.916 15.103,11.871 15.103,9.348 C15.103,6.825 13.053,4.780 10.522,4.780 ZM10.522,11.741 C9.212,11.741 8.122,10.653 8.122,9.348 C8.122,8.043 9.212,6.955 10.522,6.955 C11.831,6.955 12.921,8.043 12.921,9.348 C12.921,10.653 11.831,11.741 10.522,11.741 Z"/>
</svg>