<svg 
 xmlns="http://www.w3.org/2000/svg"
 xmlns:xlink="http://www.w3.org/1999/xlink"
 width="23px" height="23px">
<path fill-rule="evenodd"  fill="rgb(255, 255, 255)"
 d="M19.165,23.000 L3.832,23.000 C1.817,23.000 -0.002,21.180 -0.002,19.166 L-0.002,3.833 C-0.002,1.819 1.817,-0.000 3.832,-0.000 L19.165,-0.000 C21.179,-0.000 22.999,1.819 22.999,3.833 L22.999,19.166 C22.999,21.180 21.179,23.000 19.165,23.000 Z"/>
<path fill-rule="evenodd"  fill="rgb(3, 168, 124)"
 d="M19.165,23.000 L3.832,23.000 C1.817,23.000 -0.002,21.180 -0.002,19.166 L-0.002,3.833 C-0.002,1.819 1.817,-0.000 3.832,-0.000 L19.165,-0.000 C21.179,-0.000 22.999,1.819 22.999,3.833 L22.999,19.166 C22.999,21.180 21.179,23.000 19.165,23.000 ZM15.087,5.257 L12.120,12.485 L8.494,5.257 L3.960,5.339 L5.856,7.803 L5.856,15.196 L3.878,17.825 L8.576,17.825 L6.763,15.196 L6.597,9.200 L11.049,17.168 L14.346,9.775 L14.428,16.510 L13.357,17.660 L18.796,17.660 L17.724,16.182 L17.724,6.653 L19.126,5.339 L15.087,5.257 Z"/>
</svg>