<svg 
 xmlns="http://www.w3.org/2000/svg"
 xmlns:xlink="http://www.w3.org/1999/xlink"
 width="16px" height="17px">
<path fill-rule="evenodd"  fill="rgb(255, 255, 255)"
 d="M12.919,16.020 L3.076,16.020 C1.377,16.020 -0.000,14.585 -0.000,12.815 L-0.000,6.429 L-0.000,6.417 L-0.000,3.211 C-0.000,1.441 1.377,-0.011 3.076,-0.011 L11.074,-0.011 C12.773,-0.011 14.150,1.441 14.150,3.211 L14.150,3.482 C15.235,3.977 15.996,5.103 15.996,6.417 L15.996,12.815 C15.996,14.585 14.618,16.020 12.919,16.020 ZM11.068,1.923 L3.081,1.923 C2.412,1.923 1.870,1.894 1.854,2.569 C1.854,2.559 1.851,2.552 1.851,2.541 L1.851,2.597 C1.851,2.587 1.854,2.580 1.854,2.569 C1.870,3.213 2.365,3.210 2.992,3.209 C3.020,3.208 3.047,3.200 3.076,3.200 L12.296,3.200 C12.285,2.502 11.740,1.923 11.068,1.923 ZM14.156,6.405 C14.156,5.697 13.605,5.122 12.925,5.122 L3.081,5.122 C2.402,5.122 1.851,5.697 1.851,6.405 L1.851,12.825 C1.851,13.533 2.402,14.107 3.081,14.107 L12.925,14.107 C13.604,14.107 14.155,13.533 14.155,12.825 L14.155,12.172 L10.788,12.172 C10.694,12.183 10.603,12.171 10.506,12.171 C9.145,12.171 8.042,11.062 8.042,9.644 C8.042,8.301 9.036,7.202 10.296,7.089 C10.355,7.070 10.413,7.051 10.478,7.051 L14.156,7.051 L14.156,6.405 ZM14.155,8.961 L10.754,8.961 C10.673,8.924 10.584,8.977 10.489,8.977 C10.120,8.977 9.821,9.249 9.821,9.634 C9.821,10.019 10.120,10.251 10.489,10.251 C10.564,10.251 10.632,10.280 10.699,10.257 L14.155,10.257 L14.155,8.961 Z"/>
</svg>