<svg 
 xmlns="http://www.w3.org/2000/svg"
 xmlns:xlink="http://www.w3.org/1999/xlink"
 width="23px" height="23px">
<path fill-rule="evenodd"  fill="rgb(255, 255, 255)"
 d="M21.998,4.833 C21.998,2.819 20.179,1.000 18.164,1.000 L4.831,1.000 C2.816,1.000 0.998,2.819 0.998,4.833 L0.998,18.166 C0.998,20.180 2.816,22.000 4.831,22.000 L18.164,22.000 C20.179,22.000 21.998,20.180 21.998,18.166 L21.998,4.833 Z"/>
<path fill-rule="evenodd"  fill="rgb(247, 147, 25)"
 d="M19.164,23.000 L3.831,23.000 C1.816,23.000 -0.002,21.180 -0.002,19.166 L-0.002,3.833 C-0.002,1.819 1.816,-0.000 3.831,-0.000 L19.164,-0.000 C21.179,-0.000 22.998,1.819 22.998,3.833 L22.998,19.166 C22.998,21.180 21.179,23.000 19.164,23.000 ZM16.002,13.330 C16.002,12.631 15.757,11.991 15.356,11.500 C15.757,11.008 16.002,10.368 16.002,9.669 L16.002,9.262 C16.002,7.715 14.809,6.456 13.345,6.456 L12.922,6.456 L12.922,4.991 C12.922,4.452 12.508,4.015 11.997,4.015 C11.487,4.015 11.074,4.452 11.074,4.991 L11.074,6.456 L8.918,6.456 C8.407,6.456 7.994,6.893 7.994,7.432 L7.994,15.567 C7.994,16.107 8.407,16.544 8.918,16.544 L11.074,16.544 L11.074,18.008 C11.074,18.547 11.487,18.984 11.997,18.984 C12.508,18.984 12.922,18.547 12.922,18.008 L12.922,16.544 L13.345,16.544 C14.809,16.544 16.002,15.285 16.002,13.737 L16.002,13.330 ZM13.345,14.591 L9.842,14.591 L9.842,12.476 L13.345,12.476 C13.790,12.476 14.153,12.859 14.153,13.330 L14.153,13.737 C14.153,14.208 13.790,14.591 13.345,14.591 ZM13.345,10.523 L9.842,10.523 L9.842,8.408 L13.345,8.408 C13.790,8.408 14.153,8.791 14.153,9.262 L14.153,9.669 C14.153,10.140 13.790,10.523 13.345,10.523 Z"/>
</svg>