<svg 
 xmlns="http://www.w3.org/2000/svg"
 xmlns:xlink="http://www.w3.org/1999/xlink"
 width="11px" height="11px">
<path fill-rule="evenodd"  opacity="0.541" fill="rgb(255, 255, 255)"
 d="M10.499,11.000 L0.499,11.000 C0.223,11.000 -0.001,10.776 -0.001,10.500 L-0.001,0.500 C-0.001,0.224 0.223,-0.000 0.499,-0.000 L5.499,-0.000 C5.775,-0.000 5.999,0.224 5.999,0.500 C5.999,0.776 5.775,1.000 5.499,1.000 L0.999,1.000 L0.999,10.000 L9.999,10.000 L9.999,6.500 C9.999,6.224 10.223,6.000 10.499,6.000 C10.775,6.000 10.999,6.224 10.999,6.500 L10.999,10.500 C10.999,10.776 10.775,11.000 10.499,11.000 ZM10.499,4.000 C10.223,4.000 9.999,3.776 9.999,3.500 L9.999,1.710 L4.879,6.830 C4.675,7.035 4.342,7.035 4.136,6.830 C3.931,6.624 3.931,6.291 4.136,6.086 L9.223,1.000 L7.499,1.000 C7.223,1.000 6.999,0.776 6.999,0.500 C6.999,0.224 7.223,-0.000 7.499,-0.000 L10.417,-0.000 C10.446,-0.003 10.468,-0.003 10.497,-0.000 L10.499,-0.000 C10.775,-0.000 10.999,0.224 10.999,0.500 L10.999,3.500 C10.999,3.776 10.775,4.000 10.499,4.000 Z"/>
</svg>