<svg 
 xmlns="http://www.w3.org/2000/svg"
 xmlns:xlink="http://www.w3.org/1999/xlink"
 width="48px" height="48px">
<path fill-rule="evenodd"  fill="rgb(211, 215, 219)"
 d="M24.000,-0.000 C37.254,-0.000 48.000,10.745 48.000,24.000 C48.000,37.255 37.254,48.000 24.000,48.000 C10.745,48.000 -0.001,37.255 -0.001,24.000 C-0.001,10.745 10.745,-0.000 24.000,-0.000 Z"/>
<path fill-rule="evenodd"  fill="rgb(7, 30, 64)"
 d="M33.343,25.445 C35.652,23.136 36.255,19.622 34.899,16.711 C34.748,16.360 34.397,16.059 33.996,16.009 C33.594,15.958 33.193,16.059 32.892,16.360 L29.528,19.723 L28.073,18.318 L31.436,14.955 C31.737,14.653 31.837,14.252 31.787,13.850 C31.737,13.449 31.436,13.097 31.084,12.947 C28.123,11.591 24.610,12.194 22.351,14.503 C20.343,16.511 19.640,19.372 20.343,22.032 C18.385,23.638 13.718,27.402 13.115,28.005 C11.258,29.862 11.258,32.874 13.115,34.731 C14.973,36.588 17.984,36.588 19.841,34.731 C20.443,34.128 24.208,29.460 25.814,27.503 C28.475,28.205 31.336,27.453 33.343,25.445 ZM25.864,24.843 C25.362,24.642 24.760,24.792 24.409,25.194 C22.200,27.955 18.536,32.472 18.084,32.924 C17.181,33.827 15.776,33.827 14.872,32.924 C13.969,32.020 13.969,30.615 14.872,29.711 C15.324,29.259 19.841,25.595 22.602,23.387 C23.054,23.036 23.204,22.433 22.953,21.931 C22.150,19.974 22.602,17.715 24.107,16.209 C25.162,15.155 26.667,14.603 28.123,14.703 L25.413,17.414 C24.911,17.916 24.911,18.719 25.413,19.171 L28.625,22.383 C29.127,22.885 29.930,22.885 30.382,22.383 L33.092,19.673 C33.193,21.128 32.640,22.634 31.586,23.688 C30.081,25.194 27.822,25.646 25.864,24.843 ZM16.529,30.264 C17.080,30.264 17.532,30.715 17.532,31.267 C17.532,31.819 17.080,32.271 16.529,32.271 C15.976,32.271 15.524,31.819 15.524,31.267 C15.524,30.715 15.976,30.264 16.529,30.264 Z"/>
</svg>