<svg xmlns="http://www.w3.org/2000/svg" width="18" height="16">
    <path fill="#FFF" fill-rule="evenodd" d="M16.463 10.455a.917.917 0 0 1-.142.195l-4.228 5.049a.89.89 0 0 1-.303.197.85.85 0 0 1-.383.094H9.531a.852.852 0 0 1-.616-.263.865.865 0 0 1-.261-.619v-2.596H6.046c-3.34 0-6.049-2.724-6.049-6.085v-.348c0-3.362 2.709-6.086 6.049-6.086h5.9c3.341 0 6.049 2.724 6.049 6.086v.348a6.057 6.057 0 0 1-1.532 4.028zm-.537-4.406c0-2.194-1.768-3.973-3.95-3.973H6.022c-2.182 0-3.95 1.779-3.95 3.973v.419c0 2.196 1.768 3.974 3.95 3.974h3.657v.002h.183c.476 0 .861.388.861.867v2.598h.155l3.97-4.741c.021-.021.045-.037.068-.056a3.958 3.958 0 0 0 1.01-2.644v-.419z"/>
</svg>
