<svg 
 xmlns="http://www.w3.org/2000/svg"
 xmlns:xlink="http://www.w3.org/1999/xlink"
 width="36px" height="34px">
<path fill-rule="evenodd"  fill="rgb(113, 115, 117)"
 d="M32.518,33.505 L3.454,33.505 C1.541,33.505 -0.009,31.964 -0.009,30.062 L-0.009,10.784 C-0.009,8.882 1.541,7.341 3.454,7.341 L9.674,7.341 L9.674,2.229 C9.674,1.633 9.980,1.109 10.444,0.801 C10.726,0.602 11.068,0.483 11.440,0.483 L24.590,0.483 C25.542,0.483 26.314,1.251 26.314,2.198 L26.314,2.887 C26.314,3.003 26.302,3.116 26.280,3.225 L26.280,7.341 L32.518,7.341 C34.430,7.341 35.980,8.882 35.980,10.784 L35.980,30.062 C35.980,31.964 34.430,33.505 32.518,33.505 ZM22.138,4.602 L13.816,4.602 L13.816,7.341 L22.138,7.341 L22.138,4.602 ZM31.846,12.866 C31.846,12.105 31.225,11.489 30.461,11.489 L5.514,11.489 C4.749,11.489 4.129,12.106 4.129,12.866 L4.129,19.764 L31.846,19.764 L31.846,12.866 ZM31.846,23.883 L20.082,23.883 L20.082,24.926 C20.082,25.871 19.312,26.638 18.361,26.638 L17.668,26.638 C16.718,26.638 15.947,25.871 15.947,24.926 L15.947,23.883 L4.129,23.883 L4.129,28.003 C4.129,28.764 4.749,29.380 5.514,29.380 L30.461,29.380 C31.225,29.380 31.846,28.764 31.846,28.003 L31.846,23.883 Z"/>
</svg>