<svg 
 xmlns="http://www.w3.org/2000/svg"
 xmlns:xlink="http://www.w3.org/1999/xlink"
 width="48px" height="48px">
<path fill-rule="evenodd"  fill="rgb(211, 215, 219)"
 d="M24.000,-0.000 C37.254,-0.000 48.000,10.745 48.000,24.000 C48.000,37.254 37.254,48.000 24.000,48.000 C10.745,48.000 -0.001,37.254 -0.001,24.000 C-0.001,10.745 10.745,-0.000 24.000,-0.000 Z"/>
<path fill-rule="evenodd"  fill="rgb(9, 36, 71)"
 d="M33.679,34.998 L14.302,34.998 C13.028,34.998 11.994,33.971 11.994,32.703 L11.994,19.851 C11.994,18.583 13.028,17.555 14.302,17.555 L18.449,17.555 L18.449,14.147 C18.449,13.750 18.653,13.401 18.963,13.196 C19.151,13.063 19.379,12.983 19.627,12.983 L28.393,12.983 C29.028,12.983 29.543,13.495 29.543,14.127 L29.543,14.586 C29.543,14.663 29.535,14.739 29.520,14.812 L29.520,17.555 L33.679,17.555 C34.954,17.555 35.987,18.583 35.987,19.851 L35.987,32.702 C35.987,33.971 34.954,34.998 33.679,34.998 ZM26.759,15.729 L21.211,15.729 L21.211,17.555 L26.759,17.555 L26.759,15.729 ZM33.231,21.239 C33.231,20.731 32.817,20.321 32.307,20.321 L15.676,20.321 C15.166,20.321 14.753,20.732 14.753,21.239 L14.753,25.837 L33.231,25.837 L33.231,21.239 ZM33.231,28.584 L25.388,28.584 L25.388,29.279 C25.388,29.909 24.875,30.420 24.241,30.420 L23.779,30.420 C23.145,30.420 22.631,29.909 22.631,29.279 L22.631,28.584 L14.753,28.584 L14.753,31.330 C14.753,31.838 15.166,32.248 15.676,32.248 L32.307,32.248 C32.817,32.248 33.231,31.837 33.231,31.330 L33.231,28.584 Z"/>
</svg>