<svg xmlns="http://www.w3.org/2000/svg" width="16" height="17">
    <path fill="#FFF" fill-rule="evenodd" d="M12.919 16.02H3.076C1.377 16.02 0 14.585 0 12.815V3.211C0 1.441 1.377-.011 3.076-.011h7.998c1.699 0 3.076 1.452 3.076 3.222v.271c1.085.495 1.846 1.621 1.846 2.935v6.398c0 1.77-1.378 3.205-3.077 3.205zM11.068 1.923H3.081c-.669 0-1.211-.029-1.227.646 0-.01-.003-.017-.003-.028v.056c0-.01.003-.017.003-.028.016.644.511.641 1.138.64.028-.001.055-.009.084-.009h9.22c-.011-.698-.556-1.277-1.228-1.277zm3.088 4.482c0-.708-.551-1.283-1.231-1.283H3.081c-.679 0-1.23.575-1.23 1.283v6.42c0 .708.551 1.282 1.23 1.282h9.844c.679 0 1.23-.574 1.23-1.282v-.653h-3.367c-.094.011-.185-.001-.282-.001-1.361 0-2.464-1.109-2.464-2.527 0-1.343.994-2.442 2.254-2.555.059-.019.117-.038.182-.038h3.678v-.646zm-.001 2.556h-3.401c-.081-.037-.17.016-.265.016a.649.649 0 0 0-.668.657c0 .385.299.617.668.617.075 0 .143.029.21.006h3.456V8.961z"/>
</svg>
