<svg 
 xmlns="http://www.w3.org/2000/svg"
 xmlns:xlink="http://www.w3.org/1999/xlink"
 width="18px" height="23px">
<path fill-rule="evenodd"  fill="rgb(14, 49, 85)"
 d="M16.907,12.621 C16.888,12.766 16.838,12.910 16.756,13.045 L10.516,21.477 C10.249,21.917 9.716,22.116 9.220,22.007 C8.727,22.112 8.200,21.913 7.933,21.475 L1.325,13.047 C1.278,12.970 1.245,12.890 1.219,12.808 C0.460,11.556 0.025,10.104 0.025,8.555 C0.025,3.840 4.049,0.018 9.011,0.018 C13.973,0.018 17.996,3.840 17.996,8.555 C17.996,10.028 17.599,11.412 16.907,12.621 ZM9.033,2.719 C5.629,2.719 2.870,5.341 2.870,8.575 C2.870,9.767 3.246,10.873 3.890,11.798 L3.890,11.816 L9.192,18.579 L14.248,11.746 L14.248,11.686 C14.846,10.784 15.197,9.720 15.197,8.575 C15.196,5.341 12.437,2.719 9.033,2.719 ZM9.011,12.606 C6.651,12.606 4.737,10.788 4.737,8.546 C4.737,6.303 6.651,4.485 9.011,4.485 C11.370,4.485 13.285,6.303 13.285,8.546 C13.285,10.788 11.370,12.606 9.011,12.606 ZM9.011,7.198 C8.227,7.198 7.593,7.802 7.593,8.546 C7.593,9.290 8.228,9.893 9.011,9.893 C9.794,9.893 10.429,9.290 10.429,8.546 C10.429,7.802 9.794,7.198 9.011,7.198 Z"/>
</svg>