<svg 
 xmlns="http://www.w3.org/2000/svg"
 xmlns:xlink="http://www.w3.org/1999/xlink"
 width="120px" height="121px">
<path fill-rule="evenodd"  opacity="0.18" fill="rgb(255, 255, 255)"
 d="M60.170,120.102 C27.216,120.102 0.502,93.388 0.502,60.436 C0.502,27.481 27.216,0.767 60.170,0.767 C93.122,0.767 119.836,27.481 119.836,60.436 C119.839,93.390 93.122,120.102 60.170,120.102 ZM60.406,15.201 C35.423,15.072 15.065,35.220 14.937,60.201 C14.807,85.183 34.954,105.543 59.935,105.673 C84.920,105.802 105.277,85.654 105.406,60.670 C105.535,35.688 85.388,15.330 60.406,15.201 ZM78.772,56.680 C77.190,58.230 74.969,60.834 70.874,64.498 C69.742,65.531 68.834,66.439 68.152,67.220 C67.471,68.004 66.962,68.718 66.631,69.369 C66.296,70.018 66.038,70.668 65.856,71.317 C65.673,71.966 65.397,72.489 65.032,74.120 C64.399,77.583 61.799,79.316 58.469,79.316 C56.736,79.316 54.814,78.750 53.634,77.617 C52.451,76.487 51.396,75.112 51.396,72.882 C51.396,70.085 51.828,67.972 52.695,65.923 C53.560,63.875 55.174,62.076 56.605,60.527 C58.038,58.978 60.432,57.139 62.864,55.006 C64.994,53.141 66.536,51.735 67.485,50.784 C68.433,49.835 69.233,48.779 69.882,47.612 C70.531,46.446 70.857,45.182 70.857,43.815 C70.857,41.151 69.865,39.368 67.885,37.535 C65.904,35.703 63.346,35.406 60.218,35.406 C56.554,35.406 53.857,35.712 52.126,37.560 C50.394,39.410 49.392,41.667 48.195,45.264 C47.062,49.027 44.449,50.909 41.286,50.909 C39.422,50.909 37.847,50.253 36.565,48.936 C35.284,47.621 34.643,46.196 34.643,44.664 C34.643,41.501 35.659,38.295 37.690,35.049 C39.722,31.802 42.685,27.567 46.581,25.434 C50.478,23.303 55.024,22.235 60.220,22.235 C65.048,22.235 69.311,23.127 73.007,24.908 C76.703,26.689 79.559,30.659 81.575,33.724 C83.589,36.789 84.597,40.117 84.597,43.714 C84.597,46.545 84.021,49.027 82.872,51.157 C81.720,53.292 80.353,55.131 78.772,56.680 ZM58.758,84.015 C60.785,84.015 62.488,84.707 63.875,86.090 C65.256,87.473 65.949,89.179 65.949,91.204 C65.949,93.456 65.224,95.225 63.777,96.513 C62.329,97.798 60.656,98.443 58.758,98.443 C56.796,98.443 55.081,97.808 53.618,96.537 C52.153,95.267 51.422,93.490 51.422,91.204 C51.422,89.177 52.129,87.473 53.544,86.090 C54.961,84.707 56.698,84.015 58.758,84.015 Z"/>
</svg>