<svg 
 xmlns="http://www.w3.org/2000/svg"
 xmlns:xlink="http://www.w3.org/1999/xlink"
 width="18px" height="18px">
<path fill-rule="evenodd"  fill="rgb(7, 30, 64)"
 d="M8.995,17.989 C4.026,17.989 -0.001,13.961 -0.001,8.992 C-0.001,4.023 4.026,-0.005 8.995,-0.005 C13.963,-0.005 17.992,4.023 17.992,8.992 C17.993,13.961 13.963,17.989 8.995,17.989 ZM9.030,2.171 C5.263,2.152 2.194,5.190 2.175,8.957 C2.155,12.724 5.193,15.794 8.960,15.813 C12.727,15.833 15.796,12.795 15.816,9.028 C15.836,5.260 12.798,2.191 9.030,2.171 ZM11.800,8.426 C11.561,8.659 11.226,9.052 10.609,9.605 C10.438,9.760 10.302,9.897 10.198,10.015 C10.096,10.133 10.019,10.241 9.969,10.339 C9.919,10.437 9.880,10.535 9.852,10.633 C9.825,10.731 9.783,10.810 9.728,11.055 C9.633,11.578 9.241,11.839 8.739,11.839 C8.477,11.839 8.188,11.754 8.010,11.583 C7.831,11.412 7.672,11.205 7.672,10.869 C7.672,10.447 7.738,10.128 7.868,9.820 C7.998,9.511 8.242,9.240 8.458,9.006 C8.673,8.772 9.034,8.495 9.402,8.173 C9.723,7.892 9.955,7.680 10.098,7.537 C10.242,7.394 10.361,7.234 10.459,7.058 C10.558,6.883 10.607,6.692 10.607,6.486 C10.607,6.084 10.457,5.815 10.159,5.539 C9.860,5.263 9.474,5.218 9.003,5.218 C8.450,5.218 8.043,5.264 7.782,5.543 C7.521,5.822 7.370,6.162 7.189,6.704 C7.018,7.272 6.625,7.556 6.148,7.556 C5.867,7.556 5.629,7.457 5.436,7.258 C5.243,7.060 5.146,6.845 5.146,6.614 C5.146,6.137 5.300,5.654 5.605,5.164 C5.911,4.674 6.359,4.036 6.946,3.714 C7.534,3.393 8.219,3.232 9.003,3.232 C9.731,3.232 10.374,3.366 10.931,3.635 C11.488,3.904 11.919,4.502 12.223,4.964 C12.526,5.426 12.678,5.928 12.678,6.471 C12.678,6.898 12.592,7.272 12.419,7.593 C12.245,7.915 12.039,8.192 11.800,8.426 ZM8.782,12.547 C9.088,12.547 9.345,12.652 9.554,12.860 C9.763,13.069 9.867,13.326 9.867,13.632 C9.867,13.971 9.757,14.238 9.539,14.432 C9.321,14.626 9.068,14.723 8.782,14.723 C8.487,14.723 8.228,14.627 8.008,14.435 C7.786,14.244 7.676,13.976 7.676,13.632 C7.676,13.326 7.783,13.069 7.996,12.860 C8.210,12.652 8.472,12.547 8.782,12.547 Z"/>
</svg>