<svg 
 xmlns="http://www.w3.org/2000/svg"
 xmlns:xlink="http://www.w3.org/1999/xlink"
 width="34px" height="35px">
<path fill-rule="evenodd"  fill="rgb(57, 169, 220)"
 d="M28.487,29.931 C25.334,33.140 21.143,34.906 16.682,34.906 C12.223,34.906 8.031,33.140 4.878,29.931 C1.726,26.723 -0.011,22.457 -0.011,17.920 C-0.011,13.383 1.726,9.117 4.878,5.910 C8.031,2.702 12.223,0.934 16.682,0.934 C21.143,0.934 25.334,2.702 28.487,5.910 C34.996,12.533 34.996,23.308 28.487,29.931 ZM26.372,8.061 C23.785,5.427 20.343,3.977 16.682,3.977 C13.023,3.977 9.581,5.427 6.993,8.061 C4.404,10.695 2.979,14.196 2.979,17.920 C2.979,21.645 4.404,25.147 6.993,27.780 C9.581,30.414 13.023,31.864 16.682,31.864 C20.343,31.864 23.785,30.414 26.372,27.780 C31.716,22.343 31.716,13.498 26.372,8.061 ZM16.680,16.399 C21.941,16.399 23.816,18.757 23.816,20.963 C23.816,23.019 22.149,25.181 17.667,25.469 L17.667,26.236 C17.667,27.076 16.998,27.757 16.172,27.757 C15.346,27.757 14.677,27.076 14.677,26.236 L14.677,25.423 C13.542,25.287 12.415,25.018 11.325,24.595 C10.553,24.296 10.165,23.417 10.459,22.632 C10.752,21.847 11.614,21.451 12.388,21.752 C13.751,22.280 15.173,22.526 16.638,22.484 C19.373,22.484 20.827,21.700 20.827,20.963 C20.827,20.225 19.373,19.442 16.680,19.442 C11.418,19.442 9.544,17.084 9.544,14.878 C9.544,12.982 10.945,10.983 14.677,10.457 L14.677,9.605 C14.677,8.765 15.346,8.084 16.172,8.084 C16.998,8.084 17.667,8.765 17.667,9.605 L17.667,10.343 C19.153,10.420 20.631,10.729 22.047,11.291 C22.816,11.596 23.196,12.479 22.896,13.261 C22.596,14.044 21.729,14.430 20.959,14.125 C19.600,13.584 18.170,13.329 16.711,13.357 C13.987,13.357 12.533,14.141 12.533,14.878 C12.533,15.615 13.987,16.399 16.680,16.399 Z"/>
</svg>