<svg 
 xmlns="http://www.w3.org/2000/svg"
 xmlns:xlink="http://www.w3.org/1999/xlink"
 width="55px" height="55px">
<path fill-rule="evenodd"  fill="rgb(138, 197, 65)"
 d="M27.500,-0.000 C42.687,-0.000 55.000,12.312 55.000,27.500 C55.000,42.687 42.687,55.000 27.500,55.000 C12.312,55.000 -0.000,42.687 -0.000,27.500 C-0.000,12.312 12.312,-0.000 27.500,-0.000 Z"/>
<path fill-rule="evenodd"  fill="rgb(255, 255, 255)"
 d="M35.369,39.667 L20.604,39.667 C18.055,39.667 15.989,37.531 15.989,34.896 L15.989,25.393 L15.989,25.374 L15.989,20.604 C15.989,17.969 18.055,15.808 20.604,15.808 L32.601,15.808 C35.149,15.808 37.215,17.969 37.215,20.604 L37.215,21.007 C38.843,21.743 39.984,23.419 39.984,25.374 L39.984,34.897 C39.984,37.531 37.918,39.667 35.369,39.667 ZM32.592,18.687 L20.612,18.687 C19.608,18.687 18.795,18.644 18.771,19.649 C18.771,19.633 18.766,19.623 18.766,19.607 L18.766,19.690 C18.766,19.674 18.771,19.664 18.771,19.648 C18.794,20.607 19.538,20.602 20.477,20.600 C20.521,20.599 20.561,20.587 20.604,20.587 L34.435,20.587 C34.417,19.549 33.600,18.687 32.592,18.687 ZM37.223,25.357 C37.223,24.303 36.397,23.448 35.378,23.448 L20.612,23.448 C19.593,23.448 18.766,24.303 18.766,25.357 L18.766,34.912 C18.766,35.966 19.593,36.820 20.612,36.820 L35.377,36.820 C36.397,36.820 37.223,35.966 37.223,34.912 L37.223,33.939 L32.172,33.939 C32.031,33.956 31.894,33.939 31.749,33.939 C29.708,33.939 28.054,32.287 28.054,30.178 C28.054,28.179 29.543,26.542 31.434,26.375 C31.522,26.346 31.610,26.318 31.707,26.318 L37.223,26.318 L37.223,25.357 ZM37.223,29.161 L32.121,29.161 C31.999,29.106 31.865,29.186 31.724,29.186 C31.170,29.186 30.721,29.591 30.721,30.163 C30.721,30.736 31.170,31.081 31.724,31.081 C31.836,31.081 31.939,31.124 32.039,31.090 L37.223,31.090 L37.223,29.161 Z"/>
</svg>