<svg 
 xmlns="http://www.w3.org/2000/svg"
 xmlns:xlink="http://www.w3.org/1999/xlink"
 width="16px" height="8px">
<path fill-rule="evenodd"  fill="rgb(7, 30, 64)"
 d="M2.368,0.301 L7.987,5.777 L13.607,0.301 C13.968,-0.066 14.547,-0.073 14.908,0.294 C15.269,0.662 15.262,1.251 14.901,1.618 L8.647,7.713 C8.643,7.717 8.640,7.723 8.636,7.727 C8.463,7.903 8.239,7.991 8.014,7.997 C8.004,7.997 7.996,7.999 7.987,7.999 C7.979,7.999 7.970,7.997 7.961,7.997 C7.736,7.991 7.512,7.903 7.339,7.727 C7.335,7.723 7.332,7.717 7.328,7.713 L1.074,1.618 C0.713,1.251 0.706,0.662 1.067,0.295 C1.428,-0.073 2.007,-0.066 2.368,0.301 Z"/>
</svg>