<svg 
 xmlns="http://www.w3.org/2000/svg"
 xmlns:xlink="http://www.w3.org/1999/xlink"
 width="55px" height="55px">
<path fill-rule="evenodd"  fill="rgb(57, 169, 220)"
 d="M27.500,-0.000 C42.687,-0.000 55.000,12.312 55.000,27.500 C55.000,42.687 42.687,55.000 27.500,55.000 C12.312,55.000 -0.001,42.687 -0.001,27.500 C-0.001,12.312 12.312,-0.000 27.500,-0.000 Z"/>
<path fill-rule="evenodd"  fill="rgb(255, 255, 255)"
 d="M37.695,36.995 L18.319,36.995 C17.044,36.995 16.011,35.969 16.011,34.703 L16.011,21.869 C16.011,20.603 17.044,19.577 18.319,19.577 L22.466,19.577 L22.466,16.174 C22.466,15.777 22.670,15.428 22.980,15.223 C23.167,15.091 23.396,15.011 23.644,15.011 L32.410,15.011 C33.045,15.011 33.560,15.522 33.560,16.153 L33.560,16.611 C33.560,16.689 33.552,16.764 33.537,16.837 L33.537,19.577 L37.695,19.577 C38.970,19.577 40.004,20.603 40.004,21.869 L40.004,34.702 C40.004,35.969 38.970,36.995 37.695,36.995 ZM30.776,17.753 L25.227,17.753 L25.227,19.577 L30.776,19.577 L30.776,17.753 ZM37.247,23.255 C37.247,22.748 36.834,22.338 36.324,22.338 L19.693,22.338 C19.183,22.338 18.769,22.749 18.769,23.255 L18.769,27.847 L37.247,27.847 L37.247,23.255 ZM37.247,30.589 L29.405,30.589 L29.405,31.283 C29.405,31.912 28.891,32.423 28.257,32.423 L27.796,32.423 C27.162,32.423 26.648,31.913 26.648,31.283 L26.648,30.589 L18.769,30.589 L18.769,33.332 C18.769,33.839 19.183,34.249 19.693,34.249 L36.324,34.249 C36.834,34.249 37.247,33.838 37.247,33.332 L37.247,30.589 Z"/>
</svg>