<svg 
 xmlns="http://www.w3.org/2000/svg"
 xmlns:xlink="http://www.w3.org/1999/xlink"
 width="55px" height="55px">
<path fill-rule="evenodd"  fill="rgb(254, 194, 0)"
 d="M27.500,-0.000 C42.687,-0.000 55.000,12.312 55.000,27.500 C55.000,42.687 42.687,55.000 27.500,55.000 C12.312,55.000 -0.001,42.687 -0.001,27.500 C-0.001,12.312 12.312,-0.000 27.500,-0.000 Z"/>
<path fill-rule="evenodd"  fill="rgb(255, 255, 255)"
 d="M37.468,22.900 L26.998,34.079 C26.691,34.382 26.257,34.477 25.865,34.375 C25.578,34.366 25.294,34.257 25.075,34.041 L18.453,27.523 C17.997,27.074 17.997,26.346 18.453,25.898 L18.784,25.571 C19.240,25.123 19.979,25.123 20.435,25.571 L25.999,31.049 L35.473,20.935 C35.933,20.482 36.678,20.482 37.138,20.935 L37.469,21.261 C37.928,21.713 37.928,22.447 37.468,22.900 Z"/>
</svg>