<svg 
 xmlns="http://www.w3.org/2000/svg"
 xmlns:xlink="http://www.w3.org/1999/xlink"
 width="15px" height="16px">
<path fill-rule="evenodd"  fill="rgb(102, 102, 106)"
 d="M8.908,7.500 L14.690,13.281 C15.087,13.679 15.087,14.324 14.690,14.722 C14.291,15.120 13.646,15.120 13.247,14.722 L7.467,8.941 L1.718,14.690 C1.320,15.088 0.675,15.088 0.277,14.690 C-0.121,14.292 -0.121,13.647 0.277,13.249 L6.026,7.500 L0.277,1.751 C-0.121,1.353 -0.121,0.707 0.277,0.309 C0.675,-0.088 1.320,-0.088 1.718,0.309 L7.467,6.058 L13.247,0.278 C13.646,-0.121 14.291,-0.121 14.690,0.278 C15.087,0.676 15.087,1.321 14.690,1.719 L8.908,7.500 Z"/>
</svg>