<svg 
 xmlns="http://www.w3.org/2000/svg"
 xmlns:xlink="http://www.w3.org/1999/xlink"
 width="19px" height="22px">
<path fill-rule="evenodd"  fill="rgb(14, 49, 85)"
 d="M15.366,7.341 C14.521,7.341 13.745,7.042 13.130,6.547 C13.103,6.566 13.079,6.588 13.050,6.605 L8.074,10.075 C8.147,10.368 8.190,10.673 8.190,10.989 C8.190,11.354 8.137,11.706 8.039,12.039 L13.032,15.513 C13.662,14.968 14.475,14.638 15.365,14.638 C17.358,14.638 18.974,16.284 18.974,18.314 C18.974,20.344 17.358,21.990 15.365,21.990 C13.374,21.990 11.758,20.344 11.758,18.314 C11.758,18.080 11.782,17.853 11.822,17.631 L6.628,14.017 C6.046,14.425 5.342,14.665 4.582,14.665 C2.590,14.665 0.975,13.020 0.975,10.989 C0.975,8.959 2.590,7.313 4.582,7.313 C5.391,7.313 6.134,7.587 6.737,8.045 L11.847,4.482 C11.848,4.481 11.849,4.481 11.849,4.481 C11.791,4.218 11.758,3.946 11.758,3.664 C11.758,1.634 13.374,-0.012 15.365,-0.012 C17.358,-0.012 18.974,1.634 18.974,3.664 C18.974,5.695 17.359,7.341 15.366,7.341 ZM15.366,19.534 C16.028,19.534 16.564,18.988 16.564,18.314 C16.564,17.640 16.028,17.094 15.366,17.094 C14.705,17.094 14.169,17.640 14.169,18.314 C14.168,18.988 14.705,19.534 15.366,19.534 ZM4.583,9.769 C3.922,9.769 3.386,10.315 3.386,10.989 C3.386,11.663 3.922,12.209 4.583,12.209 C5.245,12.209 5.780,11.663 5.780,10.989 C5.780,10.315 5.245,9.769 4.583,9.769 ZM15.366,2.444 C14.705,2.444 14.169,2.991 14.169,3.664 C14.169,4.338 14.705,4.885 15.366,4.885 C16.028,4.885 16.564,4.338 16.564,3.664 C16.564,2.991 16.028,2.444 15.366,2.444 Z"/>
</svg>