<svg xmlns="http://www.w3.org/2000/svg" width="18" height="18">
    <path fill="#071E40" fill-rule="evenodd" d="M8.994 17.988a8.997 8.997 0 1 1 8.996-8.997 8.996 8.996 0 0 1-8.996 8.997zm.034-15.817a6.82 6.82 0 1 0-.071 13.641 6.82 6.82 0 1 0 .071-13.641zm2.77 6.254c-.239.233-.573.626-1.191 1.179-.17.156-.307.292-.411.41a1.721 1.721 0 0 0-.229.324 1.63 1.63 0 0 0-.116.294c-.029.097-.07.177-.124.423-.097.522-.488.783-.991.783-.261 0-.551-.085-.729-.256-.177-.17-.338-.378-.338-.714 0-.422.067-.741.198-1.049.13-.309.373-.58.588-.814.216-.234.577-.511.944-.833.322-.281.554-.493.697-.636.143-.143.263-.302.361-.479.099-.175.148-.366.148-.572 0-.402-.15-.67-.448-.947-.299-.276-.684-.321-1.157-.321-.552 0-.958.046-1.22.325-.26.279-.411.619-.592 1.162-.172.567-.565.851-1.043.851a.95.95 0 0 1-.71-.298c-.194-.198-.291-.413-.291-.644 0-.477.154-.96.459-1.45.306-.489.754-1.128 1.341-1.449.589-.322 1.273-.483 2.056-.483.729 0 1.372.134 1.929.403.556.269.988.867 1.292 1.33.303.462.456.964.456 1.506 0 .427-.087.801-.26 1.122-.174.322-.38.599-.619.833zm-3.017 4.122c.306 0 .562.104.771.312.208.209.313.467.313.772 0 .339-.11.606-.328.8a1.107 1.107 0 0 1-.756.291c-.297 0-.555-.096-.776-.287-.221-.192-.33-.46-.33-.804 0-.306.106-.563.318-.772a1.09 1.09 0 0 1 .788-.312z"/>
</svg>
