<svg 
 xmlns="http://www.w3.org/2000/svg"
 xmlns:xlink="http://www.w3.org/1999/xlink"
 width="29px" height="31px">
<path fill-rule="evenodd"  fill="rgb(57, 169, 220)"
 d="M28.999,29.500 C28.999,30.328 28.327,31.000 27.499,31.000 C26.671,31.000 25.999,30.328 25.999,29.500 C25.999,25.242 23.649,21.392 19.978,19.440 C18.381,20.423 16.508,21.000 14.499,21.000 C12.490,21.000 10.617,20.423 9.020,19.440 C5.348,21.392 2.999,25.242 2.999,29.500 C2.999,30.328 2.328,31.000 1.499,31.000 C0.670,31.000 -0.001,30.328 -0.001,29.500 C-0.001,24.535 2.523,19.979 6.574,17.367 C4.975,15.524 3.999,13.126 3.999,10.500 C3.999,4.710 8.709,-0.000 14.499,-0.000 C20.289,-0.000 24.999,4.710 24.999,10.500 C24.999,13.126 24.023,15.524 22.424,17.367 C26.475,19.978 28.999,24.534 28.999,29.500 ZM14.499,3.000 C10.363,3.000 6.999,6.364 6.999,10.500 C6.999,14.635 10.363,18.000 14.499,18.000 C18.634,18.000 21.999,14.635 21.999,10.500 C21.999,6.364 18.634,3.000 14.499,3.000 Z"/>
</svg>