<svg 
 xmlns="http://www.w3.org/2000/svg"
 xmlns:xlink="http://www.w3.org/1999/xlink"
 width="31px" height="31px">
<path fill-rule="evenodd"  fill="rgb(57, 169, 220)"
 d="M29.449,9.300 C28.518,9.300 27.899,8.680 27.899,7.750 L27.899,5.270 L21.234,11.935 C20.769,12.245 20.304,12.555 19.838,12.400 L11.624,10.850 L6.043,19.375 C5.579,20.150 4.648,20.305 3.874,19.840 C3.099,19.375 2.944,18.445 3.409,17.670 L9.608,8.370 C9.918,7.905 10.539,7.750 11.158,7.750 L19.684,9.145 L25.729,3.100 L23.248,3.100 C22.319,3.100 21.698,2.480 21.698,1.550 C21.698,0.620 22.319,-0.000 23.248,-0.000 L29.449,-0.000 C30.223,-0.000 31.000,0.620 31.000,1.550 L31.000,7.750 C31.000,8.680 30.379,9.300 29.449,9.300 ZM9.298,18.600 C9.298,17.670 9.918,17.050 10.849,17.050 C11.779,17.050 12.399,17.670 12.399,18.600 L12.399,27.900 L17.050,27.900 L17.050,15.500 C17.050,14.570 17.669,13.950 18.599,13.950 C19.529,13.950 20.149,14.570 20.149,15.500 L20.149,27.900 L24.799,27.900 L24.799,12.400 C24.799,11.470 25.419,10.850 26.349,10.850 C27.279,10.850 27.899,11.470 27.899,12.400 L27.899,27.900 L29.449,27.900 C30.379,27.900 31.000,28.520 31.000,29.450 C31.000,30.380 30.379,31.000 29.449,31.000 L1.549,31.000 C0.619,31.000 -0.001,30.380 -0.001,29.450 C-0.001,28.520 0.619,27.900 1.549,27.900 L9.298,27.900 L9.298,18.600 Z"/>
</svg>