<svg 
 xmlns="http://www.w3.org/2000/svg"
 xmlns:xlink="http://www.w3.org/1999/xlink"
 width="19px" height="19px">
<path fill-rule="evenodd"  fill="rgb(14, 49, 85)"
 d="M17.767,9.955 L17.141,10.582 C17.124,10.601 17.118,10.625 17.100,10.642 C16.690,11.054 16.024,11.054 15.613,10.642 C15.202,10.231 15.202,9.565 15.613,9.154 C15.630,9.137 15.652,9.132 15.669,9.117 L16.128,8.657 C17.051,7.732 17.051,6.234 16.128,5.310 L14.639,3.819 C13.715,2.894 12.219,2.894 11.295,3.819 L8.762,6.354 C7.839,7.279 7.839,8.777 8.762,9.701 L10.176,11.116 C10.199,11.136 10.230,11.144 10.252,11.167 C10.659,11.574 10.659,12.233 10.252,12.640 C9.846,13.046 9.188,13.046 8.782,12.640 C8.780,12.642 8.779,12.644 8.777,12.646 L7.114,10.982 C5.482,9.349 5.482,6.701 7.114,5.068 L10.000,2.179 C11.631,0.546 14.276,0.546 15.907,2.179 L17.767,4.041 C19.399,5.674 19.399,8.321 17.767,9.955 ZM5.313,16.117 C6.237,17.041 7.734,17.041 8.657,16.117 L11.190,13.581 C12.114,12.657 12.114,11.158 11.190,10.234 L9.777,8.819 C9.752,8.799 9.723,8.791 9.700,8.768 C9.293,8.362 9.293,7.702 9.700,7.295 C10.106,6.889 10.764,6.889 11.169,7.295 C11.171,7.293 11.174,7.291 11.175,7.289 L12.837,8.954 C14.469,10.586 14.469,13.234 12.837,14.867 L9.951,17.756 C8.320,19.389 5.676,19.389 4.044,17.756 L2.184,15.894 C0.553,14.261 0.553,11.614 2.184,9.981 L2.811,9.353 C2.827,9.334 2.834,9.310 2.851,9.293 C3.262,8.882 3.928,8.882 4.338,9.293 C4.749,9.704 4.749,10.370 4.338,10.781 C4.297,10.824 4.243,10.843 4.195,10.877 C4.200,10.882 4.206,10.886 4.210,10.891 L3.823,11.278 C2.900,12.203 2.900,13.701 3.823,14.625 L5.313,16.117 Z"/>
</svg>