<svg 
 xmlns="http://www.w3.org/2000/svg"
 xmlns:xlink="http://www.w3.org/1999/xlink"
 width="19px" height="18px">
<path fill-rule="evenodd"  opacity="0.541" fill="rgb(102, 102, 106)"
 d="M18.696,17.437 L18.418,17.713 C18.035,18.097 17.412,18.097 17.029,17.713 L12.800,13.427 C11.559,14.335 10.033,14.874 8.379,14.866 C4.271,14.845 0.959,11.499 0.980,7.393 C1.002,3.287 4.348,-0.024 8.455,-0.002 C12.562,0.019 15.874,3.365 15.853,7.470 C15.845,9.070 15.326,10.546 14.460,11.755 L18.696,16.047 C19.079,16.430 19.079,17.053 18.696,17.437 ZM8.417,2.332 C5.599,2.332 3.316,4.615 3.316,7.431 C3.316,10.248 5.599,12.531 8.417,12.531 C11.235,12.531 13.518,10.248 13.518,7.431 C13.518,4.615 11.235,2.332 8.417,2.332 Z"/>
</svg>