<svg 
 xmlns="http://www.w3.org/2000/svg"
 xmlns:xlink="http://www.w3.org/1999/xlink"
 width="23px" height="23px">
<path fill-rule="evenodd"  fill="rgb(159, 164, 171)"
 d="M19.164,23.000 L3.831,23.000 C1.816,23.000 -0.002,21.180 -0.002,19.166 L-0.002,3.833 C-0.002,1.819 1.816,-0.000 3.831,-0.000 L19.164,-0.000 C21.179,-0.000 22.998,1.819 22.998,3.833 L22.998,19.166 C22.998,21.180 21.179,23.000 19.164,23.000 ZM7.576,4.414 C7.306,4.131 6.949,3.989 6.503,3.989 C6.058,3.989 5.695,4.131 5.414,4.414 C5.134,4.699 4.993,5.058 4.993,5.492 C4.993,5.917 5.129,6.275 5.402,6.562 C5.676,6.850 6.030,6.994 6.468,6.994 L6.480,6.994 C6.934,6.994 7.300,6.850 7.576,6.562 C7.852,6.274 7.990,5.917 7.990,5.492 C7.982,5.058 7.844,4.699 7.576,4.414 ZM8.009,7.992 L4.988,7.992 L4.988,18.007 L8.009,18.007 L8.009,7.992 ZM19.012,12.191 C19.012,10.692 18.650,9.557 17.926,8.787 C17.201,8.018 16.244,7.633 15.052,7.633 C13.720,7.633 12.694,8.189 11.970,9.299 L11.998,8.000 L8.998,8.000 C9.028,8.642 8.998,17.187 8.998,18.000 L11.970,18.007 L11.970,12.338 C11.970,11.967 12.005,11.695 12.074,11.520 C12.223,11.179 12.446,10.889 12.745,10.650 C13.042,10.412 13.409,10.292 13.846,10.292 C14.997,10.292 15.573,11.057 15.573,12.586 L15.573,18.007 L19.012,18.007 L19.012,18.007 L19.012,12.191 Z"/>
</svg>