<svg 
 xmlns="http://www.w3.org/2000/svg"
 xmlns:xlink="http://www.w3.org/1999/xlink"
 width="23px" height="23px">
<path fill-rule="evenodd"  fill="rgb(183, 189, 196)"
 d="M19.165,23.000 L3.831,23.000 C1.816,23.000 -0.002,21.180 -0.002,19.166 L-0.002,3.833 C-0.002,1.819 1.816,-0.000 3.831,-0.000 L19.165,-0.000 C21.179,-0.000 22.999,1.819 22.999,3.833 L22.999,19.166 C22.999,21.180 21.179,23.000 19.165,23.000 ZM20.957,6.347 C20.957,3.972 19.025,2.040 16.650,2.040 L6.345,2.040 C3.970,2.040 2.039,3.972 2.039,6.347 L2.039,16.653 C2.039,19.027 3.970,20.959 6.345,20.959 L16.650,20.959 C19.025,20.959 20.957,19.027 20.957,16.653 L20.957,6.347 ZM17.672,6.836 C17.279,6.836 16.893,6.675 16.616,6.398 C16.337,6.119 16.177,5.733 16.177,5.339 C16.177,4.945 16.337,4.558 16.616,4.281 C16.893,4.002 17.279,3.843 17.672,3.843 C18.067,3.843 18.453,4.002 18.730,4.281 C19.010,4.558 19.170,4.945 19.170,5.339 C19.170,5.733 19.010,6.119 18.730,6.398 C18.452,6.675 18.067,6.836 17.672,6.836 ZM11.498,17.426 C8.230,17.426 5.571,14.768 5.571,11.500 C5.571,8.232 8.230,5.573 11.498,5.573 C14.765,5.573 17.424,8.232 17.424,11.500 C17.424,14.768 14.765,17.426 11.498,17.426 ZM11.498,7.614 C9.355,7.614 7.612,9.357 7.612,11.500 C7.612,13.643 9.355,15.385 11.498,15.385 C13.641,15.385 15.383,13.643 15.383,11.500 C15.383,9.357 13.641,7.614 11.498,7.614 Z"/>
</svg>