<svg 
 xmlns="http://www.w3.org/2000/svg"
 xmlns:xlink="http://www.w3.org/1999/xlink"
 width="23px" height="23px">
<path fill-rule="evenodd"  fill="rgb(159, 164, 171)"
 d="M19.165,23.000 L3.831,23.000 C1.817,23.000 -0.003,21.180 -0.003,19.166 L-0.003,3.833 C-0.003,1.819 1.817,-0.000 3.831,-0.000 L19.165,-0.000 C21.179,-0.000 22.998,1.819 22.998,3.833 L22.998,19.166 C22.998,21.180 21.179,23.000 19.165,23.000 ZM20.002,10.790 L20.002,10.789 C19.963,10.290 19.759,9.831 19.459,9.468 C19.157,9.106 18.756,8.837 18.315,8.718 L18.315,8.717 C18.313,8.717 18.311,8.716 18.307,8.716 L18.301,8.714 L18.299,8.714 C18.113,8.663 17.919,8.637 17.726,8.637 C17.292,8.637 16.858,8.765 16.491,9.023 C16.391,9.087 16.303,9.160 16.221,9.231 C16.182,9.210 16.140,9.185 16.117,9.171 L16.099,9.160 L16.098,9.160 C14.889,8.424 13.511,8.077 12.140,7.982 C12.147,7.398 12.196,6.809 12.441,6.306 L12.441,6.305 L12.441,6.304 C12.601,5.961 12.934,5.723 13.291,5.686 L13.292,5.686 C13.361,5.679 13.430,5.675 13.499,5.675 C13.976,5.675 14.457,5.851 14.909,6.065 C14.909,6.090 14.906,6.116 14.906,6.142 C14.906,6.670 15.119,7.160 15.451,7.526 C15.780,7.893 16.230,8.140 16.712,8.179 C16.790,8.190 16.869,8.194 16.947,8.194 C17.433,8.194 17.906,7.991 18.272,7.654 C18.635,7.319 18.892,6.848 18.934,6.312 C18.934,6.311 18.934,6.310 18.934,6.308 L18.935,6.307 C18.943,6.230 18.947,6.154 18.947,6.077 C18.947,5.662 18.821,5.259 18.606,4.922 C18.390,4.587 18.087,4.317 17.729,4.171 C17.727,4.171 17.726,4.170 17.724,4.169 C17.724,4.169 17.723,4.169 17.723,4.168 L17.723,4.169 C17.473,4.051 17.207,4.000 16.942,4.000 C16.691,4.000 16.441,4.045 16.205,4.123 L16.201,4.125 L16.197,4.127 C15.793,4.296 15.450,4.596 15.208,4.980 C14.666,4.750 14.085,4.603 13.496,4.603 C13.275,4.603 13.053,4.623 12.832,4.669 L12.829,4.669 L12.827,4.670 C12.248,4.820 11.763,5.252 11.482,5.808 C11.146,6.476 11.060,7.239 11.049,7.969 C9.658,8.055 8.229,8.352 7.000,9.121 C6.920,9.154 6.849,9.195 6.783,9.231 C6.579,9.061 6.353,8.938 6.123,8.836 L6.123,8.835 L6.121,8.834 C5.852,8.725 5.570,8.677 5.288,8.677 C5.229,8.677 5.170,8.680 5.111,8.684 C5.103,8.684 5.096,8.684 5.088,8.684 C4.526,8.684 4.004,8.958 3.622,9.377 C3.239,9.795 2.992,10.364 2.992,10.964 L2.992,10.967 L2.992,10.969 L2.992,10.971 C3.009,11.399 3.148,11.804 3.367,12.150 C3.572,12.472 3.850,12.742 4.169,12.932 C4.146,13.106 4.135,13.281 4.135,13.457 C4.135,14.232 4.345,15.003 4.726,15.660 C5.435,16.893 6.591,17.734 7.804,18.263 L7.805,18.263 L7.805,18.264 C8.976,18.760 10.230,19.000 11.484,19.000 C12.327,19.000 13.169,18.893 13.985,18.683 L13.986,18.682 L13.987,18.682 C15.518,18.269 17.036,17.449 18.022,16.059 L18.023,16.059 L18.023,16.058 C18.558,15.317 18.865,14.391 18.865,13.450 C18.865,13.275 18.853,13.100 18.832,12.926 C19.159,12.736 19.445,12.457 19.651,12.123 C19.872,11.767 20.005,11.346 20.005,10.909 C20.005,10.870 20.004,10.831 20.001,10.792 L20.001,10.790 L20.002,10.790 ZM18.516,11.791 C18.197,11.061 17.704,10.440 17.141,9.923 C17.318,9.829 17.517,9.782 17.718,9.782 C17.940,9.782 18.160,9.839 18.349,9.952 C18.537,10.064 18.694,10.227 18.794,10.445 L18.794,10.447 L18.796,10.449 C18.871,10.595 18.904,10.752 18.905,10.909 C18.905,11.096 18.856,11.285 18.771,11.453 C18.705,11.581 18.618,11.697 18.516,11.791 ZM17.787,13.491 C17.787,13.673 17.771,13.854 17.735,14.033 L17.734,14.033 L17.734,14.035 C17.647,14.513 17.449,14.954 17.180,15.348 C16.912,15.742 16.573,16.088 16.207,16.374 L16.207,16.375 C15.058,17.279 13.636,17.721 12.220,17.845 C11.984,17.863 11.744,17.872 11.506,17.872 C10.100,17.872 8.684,17.553 7.455,16.827 C7.358,16.770 7.264,16.711 7.170,16.650 C6.747,16.366 6.344,16.018 6.016,15.610 C5.687,15.203 5.434,14.736 5.305,14.213 L5.304,14.212 C5.244,13.979 5.215,13.740 5.215,13.500 C5.215,12.849 5.427,12.195 5.788,11.668 L5.788,11.668 C6.501,10.613 7.612,9.932 8.764,9.546 C9.651,9.256 10.577,9.111 11.503,9.111 C12.192,9.111 12.883,9.192 13.557,9.354 C13.782,9.409 14.005,9.472 14.226,9.544 L14.235,9.547 C15.387,9.929 16.495,10.615 17.208,11.666 C17.566,12.191 17.787,12.842 17.787,13.491 ZM9.609,11.722 C9.408,11.526 9.141,11.406 8.865,11.406 C8.791,11.406 8.716,11.415 8.643,11.434 C8.641,11.434 8.641,11.434 8.639,11.434 C8.639,11.434 8.639,11.434 8.638,11.434 C8.272,11.515 7.951,11.802 7.832,12.198 L7.832,12.198 C7.832,12.199 7.832,12.200 7.832,12.200 C7.798,12.308 7.782,12.420 7.782,12.530 C7.782,12.772 7.858,13.008 7.988,13.202 C8.118,13.393 8.301,13.543 8.520,13.613 C8.522,13.613 8.523,13.614 8.525,13.614 C8.525,13.614 8.528,13.615 8.529,13.616 C8.637,13.658 8.749,13.678 8.859,13.678 C9.135,13.678 9.402,13.559 9.605,13.365 C9.807,13.170 9.946,12.893 9.946,12.579 C9.946,12.571 9.946,12.563 9.946,12.553 C9.946,12.539 9.946,12.523 9.946,12.507 C9.946,12.195 9.810,11.918 9.609,11.722 ZM11.412,15.790 C10.754,15.790 10.099,15.643 9.506,15.335 L9.503,15.333 L9.500,15.332 C9.411,15.293 9.309,15.211 9.198,15.133 C9.141,15.094 9.083,15.055 9.016,15.027 C8.952,14.998 8.880,14.978 8.804,14.978 C8.740,14.978 8.673,14.993 8.607,15.024 C8.604,15.026 8.601,15.027 8.598,15.029 L8.598,15.029 C8.494,15.070 8.413,15.147 8.362,15.237 C8.307,15.331 8.280,15.439 8.280,15.548 C8.280,15.645 8.302,15.743 8.347,15.832 C8.390,15.915 8.456,15.989 8.543,16.038 C9.391,16.643 10.389,16.917 11.391,16.916 C12.294,16.916 13.203,16.695 14.012,16.292 L14.016,16.289 L14.020,16.287 C14.127,16.220 14.269,16.160 14.402,16.073 C14.468,16.029 14.533,15.977 14.588,15.910 C14.644,15.843 14.689,15.761 14.713,15.664 L14.713,15.663 C14.723,15.621 14.729,15.579 14.729,15.537 C14.729,15.457 14.711,15.382 14.680,15.314 C14.635,15.212 14.561,15.129 14.475,15.069 C14.388,15.009 14.287,14.973 14.181,14.973 C14.094,14.973 14.005,14.999 13.926,15.055 C13.174,15.529 12.290,15.790 11.412,15.790 ZM15.157,12.170 C15.156,12.168 15.156,12.168 15.156,12.166 C15.154,12.165 15.154,12.163 15.154,12.161 C15.079,11.928 14.932,11.740 14.750,11.612 C14.564,11.481 14.346,11.410 14.123,11.410 C14.001,11.410 13.877,11.433 13.761,11.479 C13.760,11.479 13.760,11.480 13.759,11.480 C13.759,11.480 13.758,11.480 13.758,11.480 C13.551,11.556 13.374,11.704 13.249,11.891 C13.124,12.078 13.048,12.305 13.048,12.541 C13.048,12.611 13.055,12.681 13.069,12.751 L13.068,12.751 C13.069,12.753 13.069,12.753 13.069,12.754 C13.069,12.755 13.069,12.756 13.069,12.757 L13.070,12.757 C13.116,13.030 13.262,13.260 13.454,13.420 C13.648,13.581 13.892,13.675 14.139,13.675 C14.244,13.675 14.351,13.658 14.454,13.620 C14.455,13.620 14.457,13.619 14.458,13.619 C14.458,13.619 14.461,13.619 14.462,13.618 L14.462,13.618 C14.684,13.552 14.872,13.403 15.005,13.211 C15.140,13.017 15.219,12.778 15.219,12.533 C15.219,12.411 15.200,12.288 15.156,12.170 L15.157,12.170 ZM4.236,11.467 C4.146,11.307 4.093,11.132 4.093,10.950 C4.093,10.927 4.094,10.903 4.096,10.880 L4.096,10.877 L4.096,10.874 C4.107,10.580 4.242,10.312 4.445,10.114 C4.649,9.915 4.921,9.792 5.189,9.783 L5.194,9.783 L5.198,9.783 C5.229,9.779 5.261,9.777 5.292,9.777 C5.479,9.777 5.669,9.841 5.851,9.931 C5.291,10.445 4.800,11.062 4.486,11.790 C4.389,11.695 4.302,11.586 4.236,11.467 ZM16.695,5.093 L16.697,5.092 L16.699,5.092 C16.774,5.068 16.851,5.057 16.928,5.057 C17.167,5.056 17.409,5.170 17.590,5.354 C17.771,5.539 17.887,5.788 17.887,6.050 C17.887,6.070 17.885,6.088 17.884,6.107 L17.884,6.109 L17.884,6.110 C17.874,6.364 17.760,6.600 17.585,6.773 C17.411,6.946 17.180,7.052 16.947,7.052 C16.930,7.052 16.913,7.052 16.896,7.050 L16.894,7.050 L16.890,7.050 C16.659,7.050 16.431,6.942 16.259,6.769 C16.089,6.596 15.976,6.361 15.968,6.110 L15.968,6.107 L15.968,6.106 C15.966,6.086 15.966,6.065 15.966,6.046 C15.966,5.827 16.047,5.617 16.179,5.447 C16.312,5.276 16.497,5.148 16.695,5.093 Z"/>
</svg>